<svg width="208" height="63" viewBox="0 0 208 63" fill="none" xmlns="http://www.w3.org/2000/svg">
<path d="M2.64645e-05 8.96024C2.64645e-05 6.99757 0.59736 5.4829 1.79203 4.41624C3.02936 3.3069 4.60803 2.75224 6.52803 2.75224C8.53336 2.75224 10.1334 3.3069 11.328 4.41624C12.5227 5.4829 13.12 6.99757 13.12 8.96024V36.2242C13.12 37.0349 13.3334 37.6109 13.76 37.9522C14.1867 38.2509 14.8907 38.1229 15.872 37.5682C18.0054 36.3309 19.904 35.3496 21.568 34.6242C23.232 33.8562 25.0667 33.4722 27.072 33.4722C29.8454 33.4722 31.936 34.1976 33.344 35.6482C34.752 37.0989 35.456 38.9976 35.456 41.3442C35.456 43.8616 34.688 45.8029 33.152 47.1682C31.6587 48.5336 29.248 49.2162 25.92 49.2162H12.736C9.92003 49.2162 7.57336 48.8962 5.69603 48.2562C3.81869 47.5736 2.38936 46.3576 1.40803 44.6082C0.46936 42.8589 2.64645e-05 40.3202 2.64645e-05 36.9922V8.96024Z" fill="#FDB4A3"/>
<path d="M37.4865 8.44823C37.4865 6.61357 38.0412 5.14157 39.1505 4.03224C40.3025 2.88024 41.8812 2.30424 43.8865 2.30424C46.0199 2.30424 47.5985 2.8589 48.6225 3.96824C49.6892 5.07757 50.2225 6.54957 50.2225 8.38424C50.2225 10.1762 49.6892 11.6269 48.6225 12.7362C47.5985 13.8029 46.0199 14.3362 43.8865 14.3362C41.7959 14.3362 40.1959 13.8029 39.0865 12.7362C38.0199 11.6269 37.4865 10.1976 37.4865 8.44823ZM43.8865 49.3442C41.8812 49.3442 40.3879 48.7896 39.4065 47.6802C38.4252 46.5709 37.9345 45.1842 37.9345 43.5202V21.6322C37.9345 19.7976 38.4252 18.3469 39.4065 17.2802C40.3879 16.2136 41.8812 15.6802 43.8865 15.6802C45.8919 15.6802 47.3852 16.2136 48.3665 17.2802C49.3905 18.3469 49.9025 19.7549 49.9025 21.5042V43.5202C49.9025 45.1842 49.3692 46.5709 48.3025 47.6802C47.2785 48.7896 45.8065 49.3442 43.8865 49.3442Z" fill="#FCD180"/>
<path d="M60.2585 49.3442C58.1679 49.3442 56.5892 48.7896 55.5225 47.6802C54.4985 46.5709 53.9865 45.1842 53.9865 43.5202V6.40024C53.9865 4.56557 54.4985 3.0509 55.5225 1.85624C56.5892 0.618903 58.1679 0.000236511 60.2585 0.000236511C62.1359 0.000236511 63.5865 0.618903 64.6105 1.85624C65.6345 3.0509 66.1465 4.5229 66.1465 6.27224V43.5202C66.1465 45.1842 65.6345 46.5709 64.6105 47.6802C63.5865 48.7896 62.1359 49.3442 60.2585 49.3442Z" fill="#85D1B7"/>
<path d="M79.6075 49.3442C76.6209 49.3442 74.1889 48.2136 72.3115 45.9522C70.4342 43.6909 69.4742 40.5122 69.4315 36.4162L69.3675 21.6322C69.3675 19.7976 69.9222 18.3682 71.0315 17.3442C72.1835 16.2776 73.7409 15.7442 75.7035 15.7442C77.5809 15.7442 79.0955 16.2776 80.2475 17.3442C81.3995 18.3682 81.9755 19.7976 81.9755 21.6322V35.0082C81.9755 38.2082 83.2342 39.8082 85.7515 39.8082C86.9889 39.8082 87.8209 39.3602 88.2475 38.4642C88.6742 37.5256 88.8875 36.3309 88.8875 34.8802V21.6322C88.8875 19.9682 89.4635 18.5816 90.6155 17.4722C91.7675 16.3202 93.2609 15.7442 95.0955 15.7442C97.0155 15.7442 98.4875 16.3202 99.5115 17.4722C100.578 18.5816 101.112 19.9682 101.112 21.6322V42.6242C101.112 44.6722 100.642 46.3149 99.7035 47.5522C98.8075 48.7469 97.3355 49.3442 95.2875 49.3442C93.2822 49.3442 91.7035 48.7469 90.5515 47.5522C89.4422 46.3149 88.8875 44.6722 88.8875 42.6242V41.5362H87.7355C87.7355 44.0109 86.9889 45.9309 85.4955 47.2962C84.0449 48.6616 82.0822 49.3442 79.6075 49.3442Z" fill="#A7DFE0"/>
<path d="M120.878 49.5362C117.55 49.5362 114.606 48.8536 112.046 47.4882C109.486 46.0802 107.481 44.0962 106.03 41.5362C104.579 38.9762 103.854 35.9682 103.854 32.5122C103.854 29.0562 104.579 26.0482 106.03 23.4882C107.481 20.9282 109.486 18.9442 112.046 17.5362C114.649 16.1282 117.635 15.4242 121.006 15.4242C123.651 15.4242 125.977 15.7016 127.982 16.2562C130.03 16.8109 131.63 17.6429 132.782 18.7522C133.977 19.8616 134.574 21.2482 134.574 22.9122C134.574 24.9176 134.062 26.4962 133.038 27.6482C132.014 28.7576 130.542 29.3122 128.622 29.3122C127.342 29.3122 126.062 29.1202 124.782 28.7362C123.545 28.3522 121.945 28.1602 119.982 28.1602C118.361 28.1602 116.995 28.4162 115.886 28.9282C114.777 29.4402 114.222 30.3789 114.222 31.7442C114.222 33.1522 114.777 34.1762 115.886 34.8162C116.995 35.4136 118.361 35.7122 119.982 35.7122C121.305 35.7122 122.414 35.5842 123.31 35.3282C124.206 35.0722 125.059 34.8162 125.87 34.5602C126.681 34.3042 127.598 34.1762 128.622 34.1762C130.798 34.1762 132.398 34.8162 133.422 36.0962C134.489 37.3336 135.022 38.9336 135.022 40.8962C135.022 42.5602 134.403 44.0536 133.166 45.3762C131.929 46.6562 130.243 47.6802 128.11 48.4482C125.977 49.1736 123.566 49.5362 120.878 49.5362Z" fill="#FABDA0"/>
<path d="M143.699 49.3442C141.822 49.3442 140.328 48.7896 139.219 47.6802C138.11 46.5282 137.555 45.1202 137.555 43.4562V6.40024C137.555 4.60824 138.088 3.09357 139.155 1.85624C140.264 0.618903 141.822 0.000236511 143.827 0.000236511C145.79 0.000236511 147.262 0.618903 148.243 1.85624C149.267 3.09357 149.779 4.62957 149.779 6.46424V25.8562L149.971 25.9202C150.184 24.1282 150.739 22.4856 151.635 20.9922C152.531 19.4562 153.79 18.2189 155.411 17.2802C157.032 16.3416 159.016 15.8722 161.363 15.8722C164.52 15.8722 167.059 16.7469 168.979 18.4962C170.899 20.2456 171.859 22.6349 171.859 25.6642C171.859 27.7549 171.432 29.4189 170.579 30.6562C169.768 31.8509 168.659 32.6829 167.251 33.1522C165.843 33.6216 164.286 33.8349 162.579 33.7922V34.8802C166.376 34.8802 169.064 35.6482 170.643 37.1842C172.264 38.6776 173.075 40.5762 173.075 42.8802C173.075 45.0136 172.435 46.6562 171.155 47.8082C169.875 48.9602 168.339 49.5149 166.547 49.4722C164.584 49.4296 162.963 48.8536 161.683 47.7442C160.403 46.6349 159.336 45.1416 158.483 43.2642L155.731 37.4402C155.176 36.2882 154.451 35.4562 153.555 34.9442C152.702 34.4322 151.443 34.2402 149.779 34.3682V43.4562C149.779 45.1202 149.224 46.5282 148.115 47.6802C147.048 48.7896 145.576 49.3442 143.699 49.3442ZM151.123 30.0162C151.123 30.6136 151.422 31.0616 152.019 31.3602C152.659 31.6162 153.96 31.7442 155.923 31.7442C157.843 31.7442 159.123 31.6162 159.763 31.3602C160.403 31.1042 160.723 30.6562 160.723 30.0162C160.723 29.4189 160.403 28.9709 159.763 28.6722C159.123 28.3736 157.864 28.2242 155.987 28.2242C153.982 28.2242 152.659 28.3736 152.019 28.6722C151.422 28.9709 151.123 29.4189 151.123 30.0162Z" fill="#F6AAA2"/>
<path d="M187.159 62.5282C184.3 62.5282 181.953 62.0589 180.119 61.1202C178.327 60.1816 176.919 58.9442 175.895 57.4082C175.041 56.0856 174.551 54.6989 174.423 53.2482C174.337 51.7976 174.615 50.4536 175.255 49.2162C175.895 47.9362 176.855 46.9549 178.135 46.2722C179.457 45.5469 180.78 45.2696 182.103 45.4402C183.425 45.5682 184.641 46.0589 185.751 46.9122C186.86 47.7229 187.713 48.7896 188.311 50.1122C188.951 51.5202 189.591 52.5442 190.231 53.1842C190.913 53.8669 191.788 54.0162 192.855 53.6322C193.879 53.2909 194.241 52.3522 193.943 50.8162C193.687 49.2802 193.132 47.4669 192.279 45.3762H189.911C188.076 45.3762 186.241 44.7149 184.407 43.3922C182.572 42.0696 181.036 39.9789 179.799 37.1202L174.551 24.9602C173.74 23.0402 173.655 21.2696 174.295 19.6482C174.977 18.0269 176.193 16.8536 177.943 16.1282C179.564 15.4029 181.164 15.3602 182.743 16.0002C184.321 16.6402 185.559 18.0056 186.455 20.0962L191.319 31.4242C192.129 33.2589 193.004 34.5816 193.943 35.3922C194.924 36.2029 195.948 36.3309 197.015 35.7762C197.953 35.2642 198.465 34.5602 198.551 33.6642C198.636 32.7256 198.188 31.5949 197.207 30.2722C196.78 29.6749 196.268 29.0136 195.671 28.2882C195.116 27.5629 194.604 26.7309 194.135 25.7922C193.708 24.8109 193.495 23.7229 193.495 22.5282C193.495 20.5229 194.177 18.8802 195.543 17.6002C196.908 16.2776 198.7 15.6162 200.919 15.6162C202.924 15.6162 204.524 16.2562 205.719 17.5362C206.956 18.8162 207.575 20.4802 207.575 22.5282C207.575 23.9789 207.404 25.5789 207.063 27.3282C206.721 29.0776 206.337 30.6989 205.911 32.1922L201.303 49.0242C200.62 51.5416 199.724 53.8242 198.615 55.8722C197.505 57.9202 196.033 59.5416 194.199 60.7362C192.364 61.9309 190.017 62.5282 187.159 62.5282Z" fill="#E5B0BA"/>
</svg>
